HIERARCHY
ROOT Pelvis
{
	OFFSET 0 0 0
	CHANNELS 6 Xposition Yposition Zposition Xrotation Yrotation Zrotation 
	JOINT PelvisLeftUpperLeg
	{
		OFFSET        0        0 -9.19895
		CHANNELS 3 Xrotation Yrotation Zrotation 
		JOINT LeftUpperLegLeftLowerLeg
		{
			OFFSET -0.890644  -45.8097  0.343891
			CHANNELS 3 Xrotation Yrotation Zrotation 
			JOINT LeftLowerLegLeftFoot
			{
				OFFSET -1.29749 -44.4256        0
				CHANNELS 3 Xrotation Yrotation Zrotation 
				End Site
{
					OFFSET  15.3609   1.8433 -4.30104
				}
			}
		}
	}
	JOINT PelvisRightUpperLeg
	{
		OFFSET       0       0 9.19895
		CHANNELS 3 Xrotation Yrotation Zrotation 
		JOINT RightUpperLegRightLowerLeg
		{
			OFFSET -0.890644  -45.8097 -0.343891
			CHANNELS 3 Xrotation Yrotation Zrotation 
			JOINT RightLowerLegRightFoot
			{
				OFFSET -1.29749 -44.4256        0
				CHANNELS 3 Xrotation Yrotation Zrotation 
				End Site
{
					OFFSET 15.3609  1.8433 4.30104
				}
			}
		}
	}
	JOINT PelvisThorax
	{
		OFFSET -2.57589  15.8963        0
		CHANNELS 3 Xrotation Yrotation Zrotation 
		JOINT ThoraxLeftUpperArm
		{
			OFFSET -11.5193  39.6182  -18.732
			CHANNELS 3 Xrotation Yrotation Zrotation 
			JOINT LeftUpperArmLeftForearm
			{
				OFFSET  1.36806  -29.796 0.998672
				CHANNELS 3 Xrotation Yrotation Zrotation 
				JOINT LeftForearmLeftHand
				{
					OFFSET 0.077273 -24.5989 0.518175
					CHANNELS 3 Xrotation Yrotation Zrotation 
					End Site
{
						OFFSET        0 -10.1353        0
					}
				}
			}
		}
		JOINT ThoraxRightUpperArm
		{
			OFFSET -11.5193  39.6182   18.732
			CHANNELS 3 Xrotation Yrotation Zrotation 
			JOINT RightUpperArmRightForearm
			{
				OFFSET   1.36806   -29.796 -0.998672
				CHANNELS 3 Xrotation Yrotation Zrotation 
				JOINT RightForearmRightHand
				{
					OFFSET  0.077273  -24.5989 -0.518175
					CHANNELS 3 Xrotation Yrotation Zrotation 
					End Site
{
						OFFSET        0 -10.1353        0
					}
				}
			}
		}
		JOINT ThoraxHead
		{
			OFFSET      -16.016      54.2047 -1.15196e-17
			CHANNELS 3 Xrotation Yrotation Zrotation 
			End Site
{
				OFFSET       0 11.9494       0
			}
		}
	}
}
MOTION
Frames: 12
Frame Time: 0.01
77.4349 88.5449 34.3947 11.4683 27.0869 1.63115 2.55855 19.2759 7.23563 -8.9323 6.60249 -42.9572 -3.75678 19.0744 23.017 -16.5106 -9.73053 33.2381 10.0474 10.3026 -52.0679 1.49052 -11.618 9.05979 19.2549 -15.6256 -67.8357 -14.7112 27.9773 31.1818 -7.1447 -46.0351 42.2446 4.78039 -10.9614 1.88547 -26.3265 -38.0881 60.775 -6.79002 -1.42871 16.1447 -32.7614 15.4695 10.7957 15.5052 -25.575 35.8237 
77.4312 88.5207 34.3754 11.5173 27.0924 1.61735 2.56016 19.3333 7.25515 -8.95372 6.601 -43.0493 -3.73796 18.9993 23.0173 -16.5822 -9.6684 33.2971 10.0873 10.2365 -52.1632 1.49491 -11.6436 9.07811 19.2312 -15.6607 -67.9224 -14.7647 27.9774 31.2834 -7.09611 -46.0099 42.2291 4.79543 -10.9442 1.89374 -26.4938 -38.1632 60.774 -6.78322 -1.40185 16.0572 -32.5734 15.6076 10.8485 15.564 -25.6061 35.9651 
77.4226 88.4955 34.3635 11.5507 27.1048 1.62465 2.58096 19.3311 7.26509 -9.00015 6.62035 -43.105 -3.72395 18.9444 23.0033 -16.7045 -9.53444 33.3128 10.1018 10.0588 -52.2093 1.47868 -11.6257 9.08433 19.2582 -15.6821 -67.9995 -14.7793 27.9177 31.3293 -7.0312 -45.9447 42.2686 4.80701 -10.9317 1.88142 -26.6918 -38.2658 60.7625 -6.98071 -0.783698 15.9154 -32.663 15.8881 10.9079 15.6414 -25.7023 36.124 
77.4076 88.4676 34.3677 11.5536 27.1221 1.62503 2.63067 19.2152 7.30386 -9.07866 6.71824 -43.1567 -3.66505 18.9456 23.0035 -16.7892 -9.41726 33.3349 10.0602 9.85888 -52.2032 1.4951 -11.5698 9.06424 19.3587 -15.6766 -68.0324 -14.7552 27.7993 31.3188 -6.95302 -45.8396 42.3625 4.81342 -10.9259 1.84667 -26.9216 -38.3962 60.7383 -7.37669 0.428119 15.726 -33.0267 16.3137 10.9705 15.7106 -25.8796 36.2836 
77.3915 88.4443 34.3786 11.5619 27.115 1.61501 2.66942 19.2463 7.31727 -9.14665 6.71929 -43.1843 -3.58955 18.9348 22.9872 -16.8093 -9.37176 33.3665 10.0625 9.79526 -52.2007 1.4931 -11.5497 9.01899 19.4777 -15.62 -68.0871 -14.7627 27.6436 31.3415 -6.87071 -45.7738 42.4496 4.84243 -10.8995 1.82034 -27.2112 -38.5464 60.7196 -8.06221 1.74457 15.6165 -33.7999 16.863 11.038 15.8592 -26.1625 36.5266 
77.3933 88.426 34.4328 11.5592 27.0961 1.60222 2.72275 19.2707 7.33101 -9.17684 6.73959 -43.1965 -3.5639 18.868 22.9546 -16.7669 -9.34704 33.3979 10.1317 9.85609 -52.1488 1.48444 -11.7111 8.8672 19.6244 -15.5424 -68.0483 -14.7758 27.508 31.3069 -6.79658 -45.7544 42.4924 4.89769 -10.8954 1.81668 -27.4923 -38.6095 60.5365 -8.81339 2.822 15.7422 -34.896 17.5008 11.2074 16.0064 -26.5662 36.6774 
77.3945 88.4163 34.484 11.5345 27.0925 1.60831 2.76019 19.2427 7.34705 -9.19518 6.75495 -43.1937 -3.53913 18.8958 22.9291 -16.6866 -9.37869 33.4012 10.2463 9.94726 -52.1282 1.41118 -11.9179 8.74035 19.7651 -15.4778 -68.0212 -14.825 27.3467 31.355 -6.7434 -45.7052 42.4592 4.95369 -10.898 1.82197 -27.6054 -38.7229 60.4253 -9.59972 3.58155 16.0816 -35.37 18.0091 11.263 16.1851 -26.9827 36.7952 
77.3938 88.4098 34.5401 11.4881 27.0941 1.59222 2.80461 19.1767 7.38381 -9.16704 6.827 -43.202 -3.53964 18.9026 22.9553 -16.601 -9.37291 33.4158 10.2823 9.92242 -52.0873 1.31459 -11.9903 8.68282 19.8756 -15.4154 -67.9278 -14.8467 27.2509 31.3928 -6.75461 -45.6404 42.3562 4.9921 -10.8953 1.8385 -27.2839 -38.8763 60.4546 -9.82709 3.44414 16.6561 -35.3521 18.4565 11.2761 16.3461 -27.3549 36.7863 
77.4158 88.4148 34.6033 11.4336 27.117 1.58248 2.85099 19.0115 7.40304 -9.06884 6.99981 -43.1476 -3.55047 18.8479 22.9367 -16.4766 -9.35152 33.4105 10.2509 9.94318 -52.0393 1.25558 -12.0731 8.66126 19.9617 -15.337 -67.845 -14.8648 27.1722 31.4412 -6.76558 -45.5921 42.2528 5.02826 -10.8851 1.8482 -26.8192 -39.0534 60.5351 -9.32413 2.32936 17.2767 -35.9907 17.4579 11.4577 16.5337 -27.6266 36.6844 
77.443 88.4312 34.6363 11.3767 27.1944 1.53233 2.89044 18.8411 7.43468 -8.95279 7.10407 -43.0409 -3.64296 18.767 22.8716 -16.4162 -9.33541 33.3664 10.1781 9.88143 -51.9406 1.22231 -12.0917 8.69145 20.0649 -15.2755 -67.7181 -14.8691 27.025 31.4841 -6.75384 -45.4968 42.1791 5.02157 -10.8868 1.82865 -26.2096 -39.3302 60.6193 -8.76554 1.0499 17.9583 -38.3363 14.8605 12.5458 16.7337 -27.8602 36.5787 
77.4894 88.4661 34.6607 11.3308 27.3124 1.46084 2.88737 18.6245 7.47325 -8.80983 7.21845 -42.9031 -3.73446 18.6681 22.7759 -16.4086 -9.29048 33.2692 10.0327 9.69627 -51.7713 1.21815 -11.9969 8.72275 20.1792 -15.2051 -67.4986 -14.7863 26.799 31.4498 -6.72659 -45.366 42.0861 5.01969 -10.8852 1.8359 -25.5114 -39.5078 60.5565 -8.78593 0.505675 18.9493 -42.2623 12.1438 14.2915 16.931 -28.1269 36.4651 
77.5654 88.5268 34.6931 11.2893 27.4335 1.39747 2.91461 18.469 7.44072 -8.67633 7.27724 -42.6993 -3.8707 18.5131 22.6585 -16.3599 -9.27187 33.1517 9.87661 9.54922 -51.5932 1.18201 -11.8948 8.7864 20.2704 -15.1299 -67.2664 -14.7232 26.56 31.4534 -6.71666 -45.2521 41.9232 5.05734 -10.887 1.83825 -23.515 -39.536 60.8493 -9.90118 1.17952 20.831 -46.2445 10.1318 16.0756 17.1278 -28.3871 36.3861 
